<?xml version="1.0"?>
<svg xmlns="http://www.w3.org/2000/svg" height="512px" viewBox="0 -36 512 512" width="512px" class=""><g><path d="m452 0h-392c-33.085938 0-60 26.914062-60 60v240c0 33.085938 26.914062 60 60 60h176v40h-104v40h248v-40h-104v-40h176c33.085938 0 60-26.914062 60-60v-240c0-33.085938-26.914062-60-60-60zm20 300c0 11.027344-8.972656 20-20 20h-392c-11.027344 0-20-8.972656-20-20v-240c0-11.027344 8.972656-20 20-20h392c11.027344 0 20 8.972656 20 20zm-248-229.878906v40c-11.027344 0-20 8.972656-20 20v10c0 15.355468-5.804688 29.375-15.328125 40 9.523437 10.625 15.328125 24.644531 15.328125 40v10c0 11.027344 8.972656 20 20 20v40c-33.085938 0-60-26.914063-60-60v-10c0-11.027344-8.972656-20-20-20v-40c11.027344 0 20-8.972656 20-20v-10c0-33.082032 26.914062-60 60-60zm150 90v40c-11.027344 0-20 8.972656-20 20v10c0 33.085937-26.914062 60-60 60v-40c11.027344 0 20-8.972656 20-20v-10c0-15.355469 5.804688-29.375 15.328125-40-9.523437-10.625-15.328125-24.644532-15.328125-40v-10c0-11.027344-8.972656-20-20-20v-40c33.085938 0 60 26.917968 60 60v10c0 11.027344 8.972656 20 20 20zm0 0" data-original="#000000" class="active-path" data-old_color="#000000" fill="#666666"/></g> </svg>
