<svg id="Capa_1" enable-background="new 0 0 512 512" height="512" viewBox="0 0 512 512" width="512" xmlns="http://www.w3.org/2000/svg"><g><path d="m258.287 34.2h127.279v193.747h-127.279z" fill="#5fbe90" transform="matrix(.707 -.707 .707 .707 1.607 266.027)"/><path d="m453 197c0-33.137-26.863-60-60-60h-77v-77c0-33.137-26.863-60-60-60l-110 256 110 256h197z" fill="#24875f"/><path d="m59 0h197v512h-197z" fill="#0f9d58"/><path d="m378 227h-122l-10 105 10 105h122zm-30 180h-77v-30h77zm0-60h-77v-30h77zm0-60h-77v-30h77z" fill="#e3e7ea"/><path d="m134 227v210h122v-210zm107 180h-77v-30h77zm0-60h-77v-30h77zm-77-60v-30h77v30z" fill="#fff"/></g></svg>